<svg width="365" height="241" viewBox="0 0 365 241" fill="none" xmlns="http://www.w3.org/2000/svg">
<g filter="url(#filter0_n_93_7)">
<circle cx="185.636" cy="121.696" r="95.5517" fill="url(#paint0_radial_93_7)"/>
</g>
<g filter="url(#filter1_n_93_7)">
<path d="M242.43 31.7532C295.529 31.6313 335.817 47.868 343.549 76.8026C354.899 119.28 291.789 173.036 202.587 196.871C113.385 220.706 31.8717 205.593 20.5218 163.116C12.791 134.181 39.611 100.013 85.6927 73.6337C43.7427 97.7628 19.385 128.021 26.1578 153.37C36.3728 191.599 113.522 204.189 198.476 181.489C283.43 158.789 344.018 109.396 333.803 71.1666C327.029 45.8173 290.825 31.7419 242.43 31.7532ZM152.88 45.4639C127.838 52.8327 105.063 62.5451 85.6927 73.6337C104.849 62.6151 127.675 52.8754 152.88 45.4639ZM170.154 40.848C195.694 34.7011 220.333 31.7583 242.43 31.7532C220.113 31.8044 195.532 34.7451 170.154 40.848Z" fill="url(#paint1_linear_93_7)"/>
</g>
<defs>
<filter id="filter0_n_93_7" x="90.084" y="26.1443" width="191.104" height="191.103" filterUnits="userSpaceOnUse" color-interpolation-filters="sRGB">
<feFlood flood-opacity="0" result="BackgroundImageFix"/>
<feBlend mode="normal" in="SourceGraphic" in2="BackgroundImageFix" result="shape"/>
<feTurbulence type="fractalNoise" baseFrequency="5 5" stitchTiles="stitch" numOctaves="3" result="noise" seed="3629"/>
<feColorMatrix in="noise" type="luminanceToAlpha" result="alphaNoise"/>
<feComponentTransfer in="alphaNoise" result="coloredNoise1">
<feFuncA type="discrete" tableValues="1 1 1 1 1 1 1 1 1 1 1 1 1 1 1 1 1 1 1 1 1 1 1 1 1 1 1 1 1 1 1 1 1 1 1 1 1 1 1 1 1 1 1 1 1 1 1 1 1 1 1 0 0 0 0 0 0 0 0 0 0 0 0 0 0 0 0 0 0 0 0 0 0 0 0 0 0 0 0 0 0 0 0 0 0 0 0 0 0 0 0 0 0 0 0 0 0 0 0 0 "/>
</feComponentTransfer>
<feComposite operator="in" in2="shape" in="coloredNoise1" result="noise1Clipped"/>
<feFlood flood-color="rgba(0, 0, 0, 0.25)" result="color1Flood"/>
<feComposite operator="in" in2="noise1Clipped" in="color1Flood" result="color1"/>
<feMerge result="effect1_noise_93_7">
<feMergeNode in="shape"/>
<feMergeNode in="color1"/>
</feMerge>
</filter>
<filter id="filter1_n_93_7" x="19.2021" y="31.7525" width="325.667" height="176.415" filterUnits="userSpaceOnUse" color-interpolation-filters="sRGB">
<feFlood flood-opacity="0" result="BackgroundImageFix"/>
<feBlend mode="normal" in="SourceGraphic" in2="BackgroundImageFix" result="shape"/>
<feTurbulence type="fractalNoise" baseFrequency="5 5" stitchTiles="stitch" numOctaves="3" result="noise" seed="4648"/>
<feColorMatrix in="noise" type="luminanceToAlpha" result="alphaNoise"/>
<feComponentTransfer in="alphaNoise" result="coloredNoise1">
<feFuncA type="discrete" tableValues="1 1 1 1 1 1 1 1 1 1 1 1 1 1 1 1 1 1 1 1 1 1 1 1 1 1 1 1 1 1 1 1 1 1 1 1 1 1 1 1 1 1 1 1 1 1 1 1 1 1 1 0 0 0 0 0 0 0 0 0 0 0 0 0 0 0 0 0 0 0 0 0 0 0 0 0 0 0 0 0 0 0 0 0 0 0 0 0 0 0 0 0 0 0 0 0 0 0 0 0 "/>
</feComponentTransfer>
<feComposite operator="in" in2="shape" in="coloredNoise1" result="noise1Clipped"/>
<feFlood flood-color="rgba(0, 0, 0, 0.25)" result="color1Flood"/>
<feComposite operator="in" in2="noise1Clipped" in="color1Flood" result="color1"/>
<feMerge result="effect1_noise_93_7">
<feMergeNode in="shape"/>
<feMergeNode in="color1"/>
</feMerge>
</filter>
<radialGradient id="paint0_radial_93_7" cx="0" cy="0" r="1" gradientUnits="userSpaceOnUse" gradientTransform="translate(145.822 85.8642) rotate(73.1416) scale(137.283)">
<stop offset="0.100962" stop-color="white"/>
<stop offset="0.355769" stop-color="#69997A"/>
<stop offset="0.620192" stop-color="#51696A"/>
<stop offset="0.841346" stop-color="#231E3D"/>
</radialGradient>
<linearGradient id="paint1_linear_93_7" x1="104.688" y1="46.3586" x2="274.949" y2="177.468" gradientUnits="userSpaceOnUse">
<stop stop-color="white"/>
<stop offset="0.173077" stop-color="#DBC901"/>
<stop offset="1" stop-color="#302C07"/>
</linearGradient>
</defs>
</svg>
